<?xml version="1.0" encoding="UTF-8" standalone="no"?>
<svg
   version="1.0"
   width="2034.1182pt"
   height="2034.1182pt"
   viewBox="0 0 2034.1182 2034.1182"
   preserveAspectRatio="xMidYMid"
   id="svg126"
   sodipodi:docname="voxelmap.svg"
   inkscape:version="1.2.2 (1:1.2.2+202212051552+b0a8486541)"
   xmlns:inkscape="http://www.inkscape.org/namespaces/inkscape"
   xmlns:sodipodi="http://sodipodi.sourceforge.net/DTD/sodipodi-0.dtd"
   xmlns="http://www.w3.org/2000/svg"
   xmlns:svg="http://www.w3.org/2000/svg">
  <defs
     id="defs130" />
  <sodipodi:namedview
     id="namedview128"
     pagecolor="#ffffff"
     bordercolor="#000000"
     borderopacity="0.25"
     inkscape:showpageshadow="2"
     inkscape:pageopacity="0.0"
     inkscape:pagecheckerboard="0"
     inkscape:deskcolor="#d1d1d1"
     inkscape:document-units="pt"
     showgrid="false"
     inkscape:zoom="0.11327888"
     inkscape:cx="2974.9589"
     inkscape:cy="931.32987"
     inkscape:window-width="1206"
     inkscape:window-height="656"
     inkscape:window-x="74"
     inkscape:window-y="27"
     inkscape:window-maximized="1"
     inkscape:current-layer="svg126" />
  <g
     transform="matrix(0.1,0,0,-0.1,3.0121674,1589.6616)"
     fill="#000000"
     stroke="none"
     id="g124">
    <path
       d="m 13088,10848 c -71,-125 -81,-151 -167,-432 -51,-164 -90,-300 -88,-302 2,-2 79,190 170,428 92,237 165,433 163,435 -2,2 -37,-56 -78,-129 z"
       id="path2" />
    <path
       d="m 14080,10650 c -56,-127 -105,-230 -107,-230 -3,0 -46,38 -95,85 -50,47 -93,85 -97,85 -3,-1 -55,-83 -116,-183 -60,-100 -162,-260 -228,-355 l -118,-174 6,-86 c 5,-74 -7,-186 -83,-768 l -89,-680 49,-358 c 27,-197 47,-361 44,-363 -2,-3 -43,16 -89,41 l -85,47 -6,-38 c -20,-133 -20,-133 2,-133 12,0 55,5 97,11 73,11 77,13 120,63 25,28 45,60 45,71 1,11 52,576 114,1255 l 112,1235 7,-205 c 4,-113 16,-779 27,-1480 20,-1249 21,-1277 42,-1369 27,-110 24,-116 59,147 12,94 25,172 29,172 3,0 14,-23 24,-50 10,-28 20,-50 21,-48 5,6 -18,233 -24,236 -4,1 -5,19 -3,40 2,20 -8,178 -23,350 -14,173 -25,316 -23,318 2,1 137,-496 300,-1105 l 296,-1108 -153,-608 c -85,-334 -156,-609 -158,-611 -2,-3 -7,35 -10,83 -6,74 -1,126 29,318 l 37,230 -393,1010 c -216,556 -396,1019 -400,1030 -8,18 -9,17 -15,-10 -5,-22 -38,-56 -126,-130 -65,-55 -119,-102 -119,-106 0,-4 36,-10 80,-13 l 79,-7 -5,-42 c -3,-23 -13,-127 -24,-232 -11,-110 -45,-337 -82,-538 l -63,-347 -3,547 -3,548 -161,-555 -160,-555 27,-170 c 15,-93 29,-182 32,-196 4,-21 -2,-30 -35,-52 l -40,-26 -7,152 c -4,84 -12,252 -19,374 l -11,222 -480,-215 c -264,-117 -482,-214 -485,-214 -3,0 18,14 47,31 45,26 55,38 73,86 11,31 19,57 18,58 -2,1 -29,16 -61,34 -42,24 -58,29 -62,19 -2,-7 -28,-96 -58,-198 l -53,-185 25,-94 c 14,-52 27,-88 29,-80 3,8 14,39 25,68 l 20,55 32,-105 33,-104 -27,-26 c -14,-15 -77,-75 -140,-133 l -114,-106 -25,41 c -13,22 -28,37 -32,32 -4,-4 -24,-78 -45,-163 -21,-85 -148,-517 -282,-960 -134,-443 -242,-815 -241,-827 3,-18 30,3 176,133 105,93 181,154 194,154 16,0 19,5 15,21 -5,18 63,202 82,222 4,4 27,-17 50,-48 23,-30 46,-55 51,-55 15,0 12,8 -21,56 l -31,45 56,140 c 31,76 56,144 56,149 0,6 -7,10 -15,10 -8,0 -15,5 -15,12 0,16 63,168 68,164 2,-3 -3,-39 -12,-82 -9,-42 -15,-78 -13,-80 1,-2 62,91 136,206 123,194 135,210 169,220 20,5 74,20 120,34 l 83,24 8,-21 c 4,-12 18,-59 31,-104 13,-46 26,-81 28,-78 2,2 -6,50 -18,105 -12,56 -20,103 -18,105 2,1 26,9 54,17 l 52,15 16,-31 c 15,-29 15,-22 9,119 -3,83 -8,196 -12,253 l -6,103 -225,-280 c -124,-154 -226,-278 -228,-276 -2,1 46,216 107,476 77,327 116,479 129,493 24,27 355,410 359,415 2,3 338,-193 352,-205 5,-4 -448,-568 -459,-572 -5,-2 -11,6 -15,18 -4,12 -9,20 -11,17 -4,-4 821,-4124 834,-4164 7,-21 31,-9 457,216 l 450,238 200,48 c 110,26 206,50 213,54 8,4 -126,117 -360,305 l -373,298 -223,471 c -122,260 -221,475 -220,479 2,4 31,-46 66,-110 57,-106 75,-130 176,-231 63,-63 118,-111 124,-107 5,3 -45,183 -124,438 l -133,433 -125,1075 c -68,591 -123,1076 -122,1078 2,1 216,-521 476,-1160 441,-1086 502,-1232 484,-1169 -6,23 -3,22 68,-17 l 75,-42 368,-25 c 202,-14 369,-24 371,-23 2,3 -534,112 -796,161 l -114,22 -45,118 -45,118 57,362 c 32,199 57,365 57,370 0,4 10,8 23,8 16,1 18,2 5,6 -51,13 -9,35 190,98 114,36 236,75 272,87 36,11 67,22 69,24 2,2 -2,16 -8,32 l -12,29 -222,9 -221,9 242,255 c 134,140 246,256 250,258 4,1 32,-73 63,-165 l 56,-168 -48,-215 c -27,-118 -49,-223 -49,-232 0,-15 886,-1448 908,-1470 4,-3 59,2 122,13 112,18 121,22 363,141 l 248,123 -5,29 c -8,39 -586,2189 -591,2197 -2,3 -169,75 -371,160 l -367,154 87,3 86,3 1,457 c 0,251 4,478 8,505 4,26 7,47 6,47 -1,0 -157,-191 -346,-424 -189,-233 -346,-422 -348,-420 -2,2 -76,4071 -82,4549 l -1,100 -36,-169 c -21,-93 -38,-162 -40,-154 -2,9 11,116 28,238 17,122 29,224 27,226 -2,2 -50,-100 -107,-226 z m -2395,-4895 87,-135 -23,-19 c -13,-11 -25,-18 -26,-17 -3,3 -133,299 -133,303 0,13 18,-13 95,-132 z"
       id="path4" />
    <path
       d="m 14598,10101 4,-266 149,-1122 c 82,-617 149,-1125 149,-1128 0,-3 11,-5 25,-5 23,0 39,28 188,326 l 162,325 78,-6 c 132,-12 122,-4 220,-170 l 87,-149 -1,54 c 0,30 -10,224 -22,430 l -22,375 -436,685 c -240,377 -470,737 -511,801 l -74,116 z"
       id="path6" />
    <path
       d="m 8110,9950 -215,-139 -6,-148 c -4,-81 -7,-203 -8,-271 l -1,-122 74,51 73,51 123,284 c 68,156 125,283 126,281 5,-4 -101,-272 -165,-417 -27,-63 -48,-117 -46,-119 3,-2 20,8 40,23 19,15 35,24 35,20 0,-5 -37,-147 -82,-318 -59,-221 -84,-304 -90,-290 -5,10 -43,101 -86,201 l -79,183 5,-322 c 5,-312 4,-321 -14,-314 -11,4 -40,12 -66,18 -47,11 -48,12 -48,52 0,30 7,47 29,71 l 29,30 5,335 6,335 -20,-255 c -12,-161 -25,-266 -34,-285 -12,-26 -14,-27 -14,-8 -1,12 4,25 9,28 6,4 5,11 -4,20 -7,8 -17,39 -21,70 -7,58 -19,76 -65,100 l -28,14 87,221 c 47,121 88,213 90,203 2,-13 6,-10 15,12 12,29 13,28 35,-55 30,-116 32,-117 25,-20 -4,47 -8,88 -10,92 -5,8 -293,184 -315,193 -12,4 -37,-29 -103,-136 l -87,-143 16,-140 c 9,-78 18,-142 20,-144 1,-2 30,-6 63,-10 l 61,-7 80,-106 79,-106 -210,-759 c -115,-418 -213,-762 -217,-767 -4,-4 -62,-2 -130,4 l -122,12 3,731 3,731 26,77 27,77 -24,22 c -20,19 -24,32 -25,88 v 66 l -23,-51 -24,-51 -7,-829 c -3,-456 -9,-837 -11,-846 -3,-10 -11,-18 -19,-18 -15,0 2,-64 49,-188 l 26,-68 81,-40 c 78,-38 81,-40 76,-69 -3,-16 -9,-38 -13,-49 -7,-19 -3,-19 84,1 21,5 22,2 24,-48 l 2,-54 3,50 c 5,62 14,71 51,56 l 29,-12 -28,-107 c -16,-58 -27,-107 -25,-109 2,-2 32,35 67,82 35,47 67,85 71,85 5,0 40,-16 79,-36 39,-19 73,-33 75,-31 10,10 95,299 91,310 -3,7 4,21 13,32 17,18 19,62 29,484 8,333 14,467 23,472 6,4 31,10 56,14 24,4 51,9 58,12 11,4 14,-14 15,-93 1,-55 4,-125 8,-156 6,-56 8,-49 250,722 135,429 249,784 255,790 18,18 -1,21 -38,6 -20,-8 -36,-13 -36,-11 0,3 28,43 62,91 l 61,86 -12,186 c -13,198 -17,232 -29,232 -4,0 -104,-63 -222,-140 z M 7810,8499 c 0,-22 -21,-64 -67,-135 -36,-57 -68,-104 -70,-104 -1,0 -3,49 -3,108 v 109 l 58,26 c 76,33 82,33 82,-4 z"
       id="path8" />
    <path
       d="m 7086,9494 -58,-86 43,7 44,7 -3,-193 -4,-193 81,73 c 45,40 81,75 81,77 0,2 -16,-4 -36,-13 -27,-13 -37,-14 -43,-5 -4,7 -16,102 -26,212 -9,110 -18,200 -19,200 0,0 -27,-39 -60,-86 z"
       id="path10" />
    <path
       d="m 8332,9405 c 0,-44 4,-132 8,-195 l 7,-115 v 170 c 1,94 -3,181 -7,195 -5,17 -8,-1 -8,-55 z"
       id="path12" />
    <path
       d="m 8520,9392 v -77 l 45,3 c 25,2 45,6 45,9 0,7 -82,143 -86,143 -2,0 -4,-35 -4,-78 z"
       id="path14" />
    <path
       d="m 6662,9288 c -15,-64 -27,-170 -38,-343 l -17,-250 -93,-385 c -51,-212 -91,-387 -88,-389 2,-2 7,-2 10,1 3,3 70,242 149,531 137,497 145,534 161,687 l 17,162 -40,39 -39,40 z"
       id="path16" />
    <path
       d="m 8590,9245 -83,-125 7,-652 c 7,-770 13,-958 30,-952 8,3 30,271 71,879 33,481 62,871 66,867 4,-4 12,-349 18,-767 6,-418 14,-779 17,-802 5,-41 5,-41 52,-46 40,-4 62,2 140,36 72,33 92,46 92,62 0,11 -33,189 -74,395 -66,335 -78,414 -57,383 3,-6 26,-22 50,-37 l 43,-28 -32,41 c -18,22 -38,38 -44,35 -6,-3 7,10 29,30 l 40,35 27,-26 c 56,-54 25,-11 -80,111 l -108,124 -54,281 c -30,155 -57,281 -61,281 -3,0 -43,-56 -89,-125 z"
       id="path18" />
    <path
       d="m 8864,9320 c 121,-556 171,-779 172,-777 1,1 -2,102 -7,223 l -9,221 -81,179 c -44,99 -78,168 -75,154 z"
       id="path20" />
    <path
       d="m 8391,9154 c 0,-11 3,-14 6,-6 3,7 2,16 -1,19 -3,4 -6,-2 -5,-13 z"
       id="path22" />
    <path
       d="m 9336,8975 c 2,-66 7,-156 10,-200 4,-44 4,-78 1,-75 -2,3 -33,83 -67,178 -35,95 -65,171 -67,169 -2,-3 82,-328 186,-723 104,-396 193,-731 196,-745 6,-25 4,-27 -63,-44 -64,-17 -71,-21 -97,-64 l -28,-46 -19,65 c -11,36 -30,99 -43,140 -23,74 -23,75 -31,40 l -7,-35 -18,60 -18,60 4,-60 4,-60 -10,55 c -5,30 -8,65 -6,77 2,12 0,20 -4,17 -5,-3 -9,8 -9,24 0,15 -9,62 -20,103 -14,54 -20,107 -20,199 0,91 -3,121 -11,110 -8,-11 -9,-1 -4,35 9,67 -6,831 -16,813 -4,-7 -11,-64 -15,-126 -4,-62 -11,-115 -15,-118 -15,-9 -10,-79 16,-278 14,-104 25,-207 24,-230 -1,-23 -18,75 -38,216 -20,141 -40,260 -44,264 -4,4 -7,-225 -7,-510 v -517 l 21,11 c 20,11 20,10 17,-74 -2,-49 1,-87 6,-89 6,-2 -55,-370 -137,-833 -81,-456 -152,-857 -158,-892 -11,-62 -12,-63 -31,-45 -14,12 -6,-12 26,-74 25,-51 48,-93 50,-93 2,0 66,166 142,369 76,204 140,368 141,367 3,-2 -678,-4025 -693,-4098 l -6,-28 h 459 458 l 198,31 198,32 -6,106 c -6,100 -125,2831 -125,2865 0,14 4,15 20,6 25,-13 20,-17 177,113 l 130,107 10,93 c 5,50 9,93 9,93 -1,1 -77,-81 -171,-183 l -170,-185 -7,43 c -3,24 -11,177 -18,339 l -11,295 -27,24 c -15,13 -57,52 -94,85 l -66,61 -46,395 c -25,217 -44,396 -42,397 2,2 90,-207 195,-465 106,-257 195,-473 199,-479 4,-6 20,-9 35,-6 l 28,6 -5,116 c -6,116 -2,124 19,41 10,-41 14,-20 44,265 18,171 33,317 35,325 3,21 15,-234 22,-502 4,-126 10,-228 13,-228 3,0 12,4 20,9 12,8 10,74 -11,442 l -25,434 61,198 c 69,223 62,223 92,10 12,-90 21,-123 31,-123 18,0 20,10 28,102 l 7,78 61,35 c 64,37 61,39 -32,18 l -24,-6 7,104 8,104 -60,-58 -59,-59 -69,42 c -38,23 -73,45 -78,47 -4,3 -7,-49 -5,-115 l 4,-121 -48,-49 -48,-49 28,-57 28,-58 -30,-24 c -16,-13 -34,-24 -39,-24 -5,0 -6,22 -3,50 3,27 2,52 -2,55 -5,2 -12,124 -16,269 l -7,264 -64,-18 c -58,-16 -64,-16 -68,-1 -3,9 -68,347 -146,751 -77,404 -142,742 -144,750 -3,8 -3,-39 0,-105 z m -169,-257 c -3,-8 -6,-5 -6,6 -1,11 2,17 5,13 3,-3 4,-12 1,-19 z m 120,-1135 c -3,-10 -5,-2 -5,17 0,19 2,27 5,18 2,-10 2,-26 0,-35 z m 10,-70 c -3,-10 -5,-4 -5,12 0,17 2,24 5,18 2,-7 2,-21 0,-30 z m 10,-80 c -3,-10 -5,-2 -5,17 0,19 2,27 5,18 2,-10 2,-26 0,-35 z m 170,-5 c -3,-7 -5,-2 -5,12 0,14 2,19 5,13 2,-7 2,-19 0,-25 z m -160,-65 c -3,-10 -5,-4 -5,12 0,17 2,24 5,18 2,-7 2,-21 0,-30 z m 223,-268 c 27,-153 48,-280 46,-282 -1,-1 -19,57 -39,130 -32,118 -70,366 -66,440 2,31 3,25 59,-288 z m -268,-11 -8,-49 -13,53 c -12,48 -11,58 5,95 l 19,42 3,-46 c 2,-25 -1,-68 -6,-95 z m -30,-49 c 25,-39 48,-82 51,-95 4,-14 13,-46 21,-72 l 15,-47 -40,15 c -21,9 -53,14 -69,12 -28,-4 -30,-2 -30,27 0,18 -3,81 -6,141 -4,72 -3,106 3,99 6,-5 30,-42 55,-80 z m 658,-25 c 0,-5 -8,-10 -17,-10 -15,0 -16,2 -3,10 19,12 20,12 20,0 z m -30,-74 c 6,-8 19,-12 28,-10 11,4 10,1 -3,-7 -11,-6 -21,-13 -23,-15 -2,-1 4,-14 13,-28 l 17,-26 h -59 -60 l -2,50 -1,50 h 39 c 21,0 44,-6 51,-14 z m -564,-132 c 28,-4 33,-10 44,-52 10,-42 70,-504 66,-509 -1,-1 -30,23 -64,55 -54,49 -68,71 -106,157 -42,98 -43,103 -48,232 l -6,133 42,-6 c 22,-3 55,-7 72,-10 z"
       id="path24" />
    <path
       d="m 8303,8895 -31,-66 66,-154 c 37,-85 69,-149 73,-143 4,6 3,18 -2,27 -4,9 -22,101 -39,206 -17,104 -32,191 -34,192 -1,2 -16,-26 -33,-62 z"
       id="path26" />
    <path
       d="m 8401,8854 c 0,-11 3,-14 6,-6 3,7 2,16 -1,19 -3,4 -6,-2 -5,-13 z"
       id="path28" />
    <path
       d="m 8140,8560 -112,-225 17,-95 c 9,-52 24,-129 34,-171 l 18,-77 -89,-142 -88,-142 75,-95 c 41,-53 75,-101 75,-107 0,-6 -31,-126 -68,-266 l -68,-255 -49,-27 -50,-28 h 43 c 37,0 43,-3 38,-17 -3,-10 -35,-175 -71,-367 l -67,-348 21,-21 20,-21 9,25 c 5,13 107,358 228,766 120,408 220,741 221,739 1,-1 -62,-384 -140,-850 l -142,-848 53,-48 c 50,-44 52,-48 34,-61 -12,-9 -232,-559 -588,-1471 -313,-801 -570,-1455 -571,-1454 -2,2 179,735 402,1630 223,895 405,1630 405,1634 0,4 -47,-71 -104,-166 -56,-95 -105,-175 -109,-178 -3,-3 -8,49 -12,115 -4,67 -10,121 -14,121 -3,-1 -28,-20 -54,-43 l -48,-42 41,-108 c 22,-59 40,-111 40,-117 0,-5 -15,-34 -33,-64 l -33,-55 -305,963 -304,963 -11,-111 c -7,-61 -12,-112 -13,-114 -1,-2 -13,5 -28,16 -16,10 -45,29 -66,42 l -39,23 36,-72 36,-71 -40,-80 c -22,-44 -38,-80 -35,-80 2,0 30,11 61,25 32,14 59,24 61,21 2,-2 1,-21 -3,-42 l -6,-39 -129,4 -129,3 -21,-48 c -43,-99 -43,-93 7,-82 25,6 48,8 50,5 3,-3 -2,-44 -11,-92 -9,-48 -14,-89 -12,-91 2,-2 16,41 32,96 16,55 32,100 37,100 4,0 8,-3 8,-7 -1,-42 -100,-997 -105,-1001 -3,-3 -29,5 -58,18 -28,13 -53,24 -54,25 -1,0 -11,57 -23,125 l -22,125 22,355 c 14,210 28,366 35,381 10,21 9,30 -2,45 -7,10 -19,36 -25,56 -9,30 -16,38 -35,38 -16,0 -22,-4 -18,-12 4,-7 1,-6 -7,3 -7,9 -37,19 -71,23 -47,6 -57,11 -57,27 0,10 3,19 8,19 4,0 104,-18 222,-40 118,-22 217,-40 220,-39 3,0 -21,14 -53,30 -36,18 -57,35 -54,43 3,7 33,59 66,116 34,56 60,105 57,107 -2,2 -30,0 -62,-6 -81,-15 -82,-15 -40,22 l 38,32 h -221 c -121,1 -223,4 -226,7 -4,4 -24,102 -44,220 l -38,213 -208,308 c -115,169 -212,304 -216,300 -15,-18 -240,-902 -260,-1025 -20,-130 -29,-153 -336,-963 -174,-456 -319,-834 -323,-838 -6,-7 -570,98 -643,120 -10,2 144,-183 343,-412 l 362,-417 -45,-1392 c -25,-765 -44,-1392 -43,-1393 1,-1 128,616 282,1372 l 279,1375 44,-44 43,-44 -24,-323 -24,-324 380,-626 c 210,-345 382,-626 383,-625 1,1 -47,641 -107,1421 -60,780 -108,1420 -107,1421 1,1 153,-713 337,-1587 184,-874 336,-1584 338,-1577 1,7 56,721 122,1587 81,1070 118,1600 115,1655 -3,45 1,176 8,291 l 14,210 -2,-400 c -1,-220 -6,-417 -10,-437 l -7,-37 92,40 c 73,31 358,111 388,108 4,0 -101,-37 -233,-83 -206,-71 -240,-86 -243,-104 -3,-21 0,-21 135,-24 l 138,-3 -136,-38 -136,-39 -7,-51 c -3,-29 -6,-95 -6,-147 v -94 l 73,72 72,72 49,-126 c 35,-89 52,-121 58,-110 5,8 31,75 59,148 27,73 53,136 58,141 7,7 71,-10 71,-19 0,-3 -9,-22 -20,-42 -17,-32 -34,-184 -125,-1161 -58,-618 -104,-1128 -102,-1135 2,-6 0,-19 -5,-28 -5,-10 -6,-18 -3,-18 3,0 93,52 201,115 108,63 199,115 202,114 4,0 99,-113 212,-250 196,-239 206,-250 235,-245 17,2 103,15 193,27 l 162,22 v 41 c 0,23 11,534 24,1136 12,602 21,1118 18,1146 l -4,51 32,-5 c 31,-4 32,-3 27,24 -4,16 -11,97 -17,179 -14,187 -15,195 -40,195 -11,0 -20,5 -20,10 0,14 13,13 76,-6 50,-14 54,-18 65,-57 l 12,-42 12,75 c 7,41 15,133 19,203 6,120 5,128 -11,123 -44,-12 -185,-37 -189,-33 -3,2 14,150 38,328 24,178 44,315 46,305 4,-18 -23,-399 -34,-483 l -5,-43 h 56 c 47,0 72,8 168,56 61,31 113,58 115,59 5,4 -18,752 -24,803 -3,24 -7,42 -9,40 -2,-1 -42,-203 -90,-448 -47,-245 -89,-454 -93,-465 -7,-21 -49,769 -44,821 3,28 13,35 99,78 105,52 102,45 40,112 l -29,32 56,6 56,7 v 52 c 0,29 -7,336 -16,683 l -16,630 -88,244 -88,244 z M 5770,7226 c 82,-687 151,-1250 152,-1251 2,-2 88,15 192,36 104,22 190,38 192,37 1,-2 -110,-44 -249,-93 l -251,-90 -205,-2 -206,-2 133,28 c 73,15 134,30 136,32 2,2 -9,582 -25,1289 -15,707 -28,1294 -27,1305 1,29 -4,77 158,-1289 z m 2527,437 c -3,-10 -5,-2 -5,17 0,19 2,27 5,18 2,-10 2,-26 0,-35 z m 10,-120 c -2,-16 -4,-3 -4,27 0,30 2,43 4,28 2,-16 2,-40 0,-55 z m 10,-135 c -3,-8 -6,-5 -6,6 -1,11 2,17 5,13 3,-3 4,-12 1,-19 z m 3,-232 c -14,-14 -24,0 -16,21 6,15 8,15 16,3 6,-9 5,-19 0,-24 z M 6360,7047 c 0,-4 -18,2 -40,13 -36,18 -40,23 -34,48 4,15 9,31 12,36 4,8 61,-81 62,-97 z m -150,33 c -12,-62 -20,-76 -20,-33 0,31 19,97 26,90 2,-2 0,-28 -6,-57 z m 510,-95 c 12,-14 10,-15 -14,-5 -15,5 -36,14 -46,20 -17,9 -17,-11 -12,-530 3,-341 1,-540 -5,-540 -5,0 -17,6 -27,13 -16,11 -17,53 -19,547 l -2,535 30,5 c 30,6 67,-11 95,-45 z m -1569,-745 -57,-365 -145,-91 -144,-90 -48,9 -47,10 47,87 c 104,189 448,808 449,806 1,0 -24,-165 -55,-366 z m 3056,158 c -2,-13 -4,-5 -4,17 -1,22 1,32 4,23 2,-10 2,-28 0,-40 z m -3160,-797 -6,-109 152,39 c 84,21 156,39 161,39 7,0 4,-97 -9,-240 -2,-19 -6,-81 -10,-137 l -7,-101 -72,-9 -71,-8 -11,30 c -7,16 -21,54 -33,82 l -21,53 108,54 c 59,30 105,55 102,55 -3,1 -54,-15 -115,-34 -60,-19 -110,-33 -111,-32 -1,1 -4,12 -8,23 -6,19 -2,23 29,28 l 35,7 -52,64 c -37,45 -55,60 -58,49 -3,-8 -23,33 -45,92 -21,59 -47,111 -57,117 -15,10 -10,14 40,29 31,9 59,17 61,17 2,1 1,-48 -2,-108 z m 2303,-1 c 0,-5 -20,-10 -44,-10 h -44 l 15,61 16,60 28,-50 c 16,-28 29,-55 29,-61 z m -125,-212 c -17,-23 -17,-23 -10,12 10,46 19,60 23,33 2,-13 -4,-33 -13,-45 z"
       id="path30" />
    <path
       d="m 7086,8634 c -4,-9 -4,-19 -1,-22 2,-3 7,3 11,12 4,9 4,19 1,22 -2,3 -7,-3 -11,-12 z"
       id="path32" />
    <path
       d="m 12062,8275 c 0,-16 2,-22 5,-12 2,9 2,23 0,30 -3,6 -5,-1 -5,-18 z"
       id="path34" />
    <path
       d="m 12091,8285 c -1,-5 28,-149 64,-318 36,-170 70,-339 76,-375 l 10,-67 -148,-547 c -97,-361 -152,-548 -160,-548 -10,0 -12,14 -8,53 12,108 135,1699 134,1725 -1,15 -66,-421 -144,-968 -79,-547 -146,-1015 -150,-1040 -10,-68 7,-40 50,83 21,59 40,106 42,103 3,-2 -9,-70 -26,-150 -17,-81 -31,-151 -31,-157 0,-5 94,39 210,98 l 210,108 57,177 c 31,98 58,177 59,175 2,-2 10,-61 18,-131 15,-122 20,-145 31,-135 2,3 -13,270 -35,595 l -39,589 -56,185 c -31,102 -58,203 -61,225 -3,38 -102,342 -103,320 z"
       id="path36" />
    <path
       d="m 7887,8043 c -10,-21 -46,-159 -82,-308 -36,-148 -68,-279 -71,-290 -3,-11 17,14 43,55 l 48,74 41,251 c 23,137 40,251 39,253 -1,1 -9,-15 -18,-35 z"
       id="path38" />
    <path
       d="m 8634,7559 c -73,-73 -83,-80 -103,-70 l -21,12 v -718 c 0,-395 3,-762 7,-815 5,-86 8,-98 25,-98 10,0 18,5 18,11 0,7 36,399 80,873 44,473 79,866 78,874 -2,7 -40,-24 -84,-69 z"
       id="path40" />
    <path
       d="m 7717,7370 c -10,-51 -89,-951 -85,-955 2,-3 32,172 67,388 l 64,392 -20,105 c -17,91 -21,100 -26,70 z"
       id="path42" />
    <path
       d="m 10351,7276 c -18,-18 -28,-36 -23,-40 5,-3 15,-26 22,-51 7,-25 16,-45 19,-45 4,0 19,13 34,28 l 27,28 -16,50 c -9,27 -20,52 -23,57 -4,4 -22,-8 -40,-27 z"
       id="path44" />
    <path
       d="m 10225,7190 c -7,-45 -16,-62 -52,-102 l -45,-47 13,-56 c 7,-31 16,-58 19,-60 4,-3 16,5 26,16 18,20 19,17 51,-152 18,-95 31,-174 29,-176 -2,-3 -25,60 -51,139 -26,79 -51,146 -54,151 -4,4 -15,1 -24,-5 -16,-12 -13,-40 46,-431 34,-230 65,-419 69,-420 3,-1 24,13 47,31 l 40,32 -35,96 c -19,53 -33,98 -31,100 2,2 18,-35 36,-84 58,-153 64,-134 26,77 -13,75 -40,309 -60,521 -42,459 -40,438 -50,370 z"
       id="path46" />
    <path
       d="m 6478,7148 c 9,-9 15,-9 24,0 9,9 7,12 -12,12 -19,0 -21,-3 -12,-12 z"
       id="path48" />
    <path
       d="m 15110,6720 c 0,-8 18,-148 40,-310 24,-172 43,-360 47,-450 l 6,-155 130,-78 c 90,-54 133,-75 140,-68 8,8 -6,103 -42,308 l -52,297 -126,226 c -132,236 -143,253 -143,230 z"
       id="path50" />
    <path
       d="m 11356,6219 c -44,-109 -76,-202 -72,-206 7,-8 34,19 64,63 12,17 12,16 7,-8 -6,-32 -1,-34 49,-13 20,9 41,13 45,10 5,-2 16,5 24,18 13,20 12,39 -8,176 -13,84 -25,154 -27,156 -2,2 -39,-86 -82,-196 z"
       id="path52" />
    <path
       d="m 7621,6364 c 0,-11 3,-14 6,-6 3,7 2,16 -1,19 -3,4 -6,-2 -5,-13 z"
       id="path54" />
    <path
       d="m 13852,6270 c 0,-14 2,-19 5,-12 2,6 2,18 0,25 -3,6 -5,1 -5,-13 z"
       id="path56" />
    <path
       d="m 10317,5413 c -108,-465 -195,-848 -193,-850 3,-3 925,1662 934,1688 2,5 -115,9 -270,9 h -273 z"
       id="path58" />
    <path
       d="m 15701,6150 c -1,-52 2,-165 6,-251 l 6,-157 63,24 c 35,13 65,20 67,16 2,-4 26,-107 52,-229 27,-122 50,-221 52,-219 2,2 22,95 43,207 22,112 42,214 45,227 5,22 4,22 -84,22 h -89 l -48,138 c -26,75 -62,178 -80,227 l -33,90 z"
       id="path60" />
    <path
       d="M 1985,6028 C 1957,5954 720,2167 722,2164 c 2,-2 339,516 748,1150 410,634 748,1148 751,1142 3,-6 80,-577 170,-1269 90,-691 165,-1254 166,-1250 3,10 222,2265 226,2317 l 2,38 -280,92 c -203,67 -279,96 -278,107 5,44 285,1507 291,1522 4,9 66,-370 137,-842 72,-473 133,-857 136,-853 7,9 283,1312 278,1316 -2,2 -125,94 -273,205 l -269,201 h -269 c -206,0 -270,-3 -273,-12 z"
       id="path62" />
    <path
       d="m 15500,6029 c 0,-39 30,-342 34,-346 7,-7 141,45 139,54 -1,8 -162,294 -169,302 -2,2 -4,-2 -4,-10 z"
       id="path64" />
    <path
       d="m 8420,5838 c 0,-7 14,-206 30,-443 16,-236 30,-434 30,-438 0,-9 40,-5 58,6 7,5 22,5 33,2 16,-5 19,-4 14,5 -6,9 3,11 36,6 27,-3 35,-2 19,2 -23,7 -20,9 25,21 28,6 58,14 68,17 9,3 17,1 17,-5 0,-5 -19,-14 -42,-20 l -43,-11 41,5 c 38,4 41,3 37,-18 -2,-12 -75,-548 -163,-1191 -151,-1101 -160,-1179 -160,-1328 0,-151 1,-158 20,-158 11,0 20,6 20,13 0,12 347,3117 353,3158 2,14 -371,389 -387,389 -3,0 -6,-6 -6,-12 z"
       id="path66" />
    <path
       d="m 10022,5725 c 0,-16 2,-22 5,-12 2,9 2,23 0,30 -3,6 -5,-1 -5,-18 z"
       id="path68" />
    <path
       d="m 10033,5545 c 0,-38 2,-53 4,-32 2,20 2,52 0,70 -2,17 -4,1 -4,-38 z"
       id="path70" />
    <path
       d="m 10041,5445 c -3,-46 144,-3224 147,-3190 2,17 -16,550 -38,1185 -32,900 -49,1252 -74,1595 -19,242 -34,427 -35,410 z"
       id="path72" />
    <path
       d="m 3310,5363 c -36,-2 -69,-8 -73,-12 -5,-5 33,-23 85,-41 51,-17 98,-34 105,-37 7,-2 15,6 18,21 17,83 20,76 -27,74 -24,-1 -72,-3 -108,-5 z"
       id="path74" />
    <path
       d="m 9892,5203 c -62,-102 -82,-138 -82,-147 0,-3 29,-6 65,-6 h 65 v 50 c 0,36 -5,52 -17,59 -16,9 -16,10 3,11 19,0 22,7 27,62 3,35 4,64 2,66 -1,2 -30,-41 -63,-95 z"
       id="path76" />
    <path
       d="m 15975,5245 c 30,-88 619,-1622 625,-1628 7,-8 197,17 207,27 5,5 -785,1537 -819,1591 -11,17 -17,21 -13,10 z"
       id="path78" />
    <path
       d="m 14041,4577 c -63,-12 -110,-22 -104,-24 13,-5 186,23 228,36 50,15 -1,10 -124,-12 z"
       id="path80" />
    <path
       d="m 12042,4394 c 2,-5 19,-48 38,-94 27,-65 36,-78 38,-59 2,16 -12,51 -38,95 -23,38 -40,64 -38,58 z"
       id="path82" />
    <path
       d="m 11065,3210 -580,-1160 -72,-72 c -40,-40 -73,-77 -73,-82 0,-17 291,-761 308,-787 9,-14 58,-69 107,-122 l 90,-96 277,-79 277,-79 521,266 c 286,146 520,271 520,278 0,16 -777,3052 -788,3076 -5,12 -167,-303 -587,-1143 z"
       id="path84" />
    <path
       d="m 16872,3850 c 4,-8 36,-84 72,-169 43,-100 63,-157 56,-161 -6,-4 -65,-15 -130,-25 -66,-10 -120,-21 -120,-24 0,-7 443,-72 448,-66 2,1 -72,106 -164,231 -92,126 -165,222 -162,214 z"
       id="path86" />
    <path
       d="m 17488,3596 c -70,-13 -59,-5 -261,-180 -13,-11 -3,-8 26,8 26,15 52,24 59,20 6,-4 9,-3 5,2 -3,5 61,44 141,86 151,79 154,86 30,64 z"
       id="path88" />
    <path
       d="m 13890,3455 c 0,-5 5,-17 10,-25 5,-8 10,-10 10,-5 0,6 -5,17 -10,25 -5,8 -10,11 -10,5 z"
       id="path90" />
    <path
       d="m 17336,3431 c 5,-4 257,-177 561,-384 l 552,-375 350,81 c 193,45 351,85 351,88 0,4 -262,128 -583,277 l -583,271 -299,26 c -329,27 -364,29 -349,16 z"
       id="path92" />
    <path
       d="m 13910,3405 c 0,-5 5,-17 10,-25 5,-8 10,-10 10,-5 0,6 -5,17 -10,25 -5,8 -10,11 -10,5 z"
       id="path94" />
    <path
       d="m 15113,2966 c -222,-39 -403,-75 -403,-80 0,-5 3,-7 6,-3 3,3 16,-5 28,-17 11,-13 201,-167 421,-342 384,-306 408,-323 615,-442 298,-171 306,-176 295,-164 -5,5 -224,177 -485,382 -466,364 -479,373 -662,473 -103,55 -186,102 -184,104 2,2 450,-129 996,-292 546,-162 995,-294 997,-292 7,8 -1188,747 -1205,746 -9,-1 -198,-34 -419,-73 z"
       id="path96" />
    <path
       d="m 19265,2863 c -93,-23 -104,-28 -150,-73 l -49,-49 239,6 c 132,3 246,9 253,12 15,8 -154,131 -178,130 -8,-1 -60,-12 -115,-26 z"
       id="path98" />
    <path
       d="m 14830,2656 c 0,-2 8,-10 18,-17 15,-13 16,-12 3,4 -13,16 -21,21 -21,13 z"
       id="path100" />
    <path
       d="m 14940,2576 c 0,-2 8,-10 18,-17 15,-13 16,-12 3,4 -13,16 -21,21 -21,13 z"
       id="path102" />
    <path
       d="m 14980,2546 c 0,-2 8,-10 18,-17 15,-13 16,-12 3,4 -13,16 -21,21 -21,13 z"
       id="path104" />
    <path
       d="m 15020,2516 c 0,-2 14,-14 30,-26 17,-12 30,-19 30,-16 0,2 -13,14 -30,26 -16,12 -30,19 -30,16 z"
       id="path106" />
    <path
       d="m 15090,2466 c 0,-2 8,-10 18,-17 15,-13 16,-12 3,4 -13,16 -21,21 -21,13 z"
       id="path108" />
    <path
       d="m 15155,2416 c 17,-14 50,-40 75,-57 35,-23 38,-25 15,-5 -16,14 -50,40 -75,57 -35,23 -38,25 -15,5 z"
       id="path110" />
    <path
       d="m 15280,2326 c 0,-2 8,-10 18,-17 15,-13 16,-12 3,4 -13,16 -21,21 -21,13 z"
       id="path112" />
    <path
       d="m 16750,2282 c 0,-5 -66,-24 -147,-43 l -148,-34 -119,-105 c -174,-153 -224,-202 -201,-196 11,3 214,53 450,111 237,57 438,108 447,112 12,6 -22,28 -133,85 -82,43 -149,74 -149,70 z"
       id="path114" />
    <path
       d="m 8380,2276 c 0,-2 88,-273 195,-601 107,-327 195,-602 195,-609 0,-8 -89,-48 -225,-101 l -225,-88 v -71 c 0,-39 3,-129 7,-201 l 7,-130 17,178 c 9,98 19,180 22,183 2,3 392,-23 866,-58 l 863,-63 -44,-40 c -24,-22 -79,-73 -123,-113 l -80,-74 60,42 c 33,23 115,81 182,128 l 123,87 v 81 81 l -87,18 c -49,9 -100,23 -114,30 -14,6 -383,304 -820,662 -782,639 -819,669 -819,659 z"
       id="path116" />
    <path
       d="m 14890,1966 c -294,-128 -557,-242 -584,-254 l -48,-22 113,-122 c 63,-67 148,-158 189,-201 l 75,-79 555,257 c 305,142 558,260 562,264 8,7 -302,390 -317,390 -5,0 -251,-104 -545,-233 z"
       id="path118" />
    <path
       d="m 10193,2080 c 0,-41 2,-58 4,-37 2,20 2,54 0,75 -2,20 -4,3 -4,-38 z"
       id="path120" />
    <path
       d="m 10203,1825 c 0,-22 2,-30 4,-17 2,12 2,30 0,40 -3,9 -5,-1 -4,-23 z"
       id="path122" />
  </g>
</svg>
